<mxfile modified="2022-02-15T15:34:43.562Z" host="app.diagrams.net" agent="5.0 (Macintosh; Intel Mac OS X 10_15_7) AppleWebKit/605.1.15 (KHTML, like Gecko) Version/14.1.1 Safari/605.1.15" etag="_G9w0hDxjE85gTVN1QFP" version="16.5.6" type="github">
  <diagram id="Ht1M8jgEwFfnCIfOTk4-" name="Page-1">
    <mxGraphModel dx="2746" dy="803" grid="0" gridSize="10" guides="1" tooltips="1" connect="1" arrows="1" fold="1" page="1" pageScale="1" pageWidth="1169" pageHeight="827" math="0" shadow="0">
      <root>
        <mxCell id="0" />
        <mxCell id="1" parent="0" />
        <mxCell id="uFQV2wClcm7ByzA2WsBp-116" value="" style="rounded=1;whiteSpace=wrap;html=1;fontSize=13;" vertex="1" parent="1">
          <mxGeometry x="609" y="559" width="121" height="96" as="geometry" />
        </mxCell>
        <mxCell id="uFQV2wClcm7ByzA2WsBp-111" style="edgeStyle=orthogonalEdgeStyle;rounded=0;orthogonalLoop=1;jettySize=auto;html=1;entryX=0;entryY=0.5;entryDx=0;entryDy=0;fontSize=13;" edge="1" parent="1" source="uFQV2wClcm7ByzA2WsBp-108" target="uFQV2wClcm7ByzA2WsBp-109">
          <mxGeometry relative="1" as="geometry" />
        </mxCell>
        <mxCell id="uFQV2wClcm7ByzA2WsBp-113" style="edgeStyle=orthogonalEdgeStyle;rounded=0;orthogonalLoop=1;jettySize=auto;html=1;fontSize=13;" edge="1" parent="1" source="uFQV2wClcm7ByzA2WsBp-108" target="uFQV2wClcm7ByzA2WsBp-106">
          <mxGeometry relative="1" as="geometry" />
        </mxCell>
        <mxCell id="uFQV2wClcm7ByzA2WsBp-108" value="" style="rounded=1;whiteSpace=wrap;html=1;fontSize=13;" vertex="1" parent="1">
          <mxGeometry x="510" y="145" width="180" height="350" as="geometry" />
        </mxCell>
        <mxCell id="uFQV2wClcm7ByzA2WsBp-117" style="edgeStyle=orthogonalEdgeStyle;rounded=0;orthogonalLoop=1;jettySize=auto;html=1;fontSize=13;exitX=1;exitY=0.5;exitDx=0;exitDy=0;exitPerimeter=0;" edge="1" parent="1" source="uFQV2wClcm7ByzA2WsBp-106">
          <mxGeometry relative="1" as="geometry">
            <mxPoint x="640" y="755" as="sourcePoint" />
            <mxPoint x="973" y="373.5" as="targetPoint" />
            <Array as="points">
              <mxPoint x="973" y="696" />
            </Array>
          </mxGeometry>
        </mxCell>
        <mxCell id="uFQV2wClcm7ByzA2WsBp-106" value="Relational DB" style="shape=mxgraph.cisco.storage.relational_database;html=1;pointerEvents=1;dashed=0;fillColor=#036897;strokeColor=#ffffff;strokeWidth=2;verticalLabelPosition=bottom;verticalAlign=top;align=center;outlineConnect=0;fontSize=13;" vertex="1" parent="1">
          <mxGeometry x="576" y="675" width="48" height="43" as="geometry" />
        </mxCell>
        <mxCell id="uFQV2wClcm7ByzA2WsBp-75" style="edgeStyle=orthogonalEdgeStyle;rounded=0;orthogonalLoop=1;jettySize=auto;html=1;fontSize=15;" edge="1" parent="1" source="uFQV2wClcm7ByzA2WsBp-74" target="uFQV2wClcm7ByzA2WsBp-63">
          <mxGeometry relative="1" as="geometry" />
        </mxCell>
        <mxCell id="uFQV2wClcm7ByzA2WsBp-90" value="" style="edgeStyle=orthogonalEdgeStyle;rounded=0;orthogonalLoop=1;jettySize=auto;html=1;fontSize=11;" edge="1" parent="1">
          <mxGeometry relative="1" as="geometry">
            <mxPoint x="350" y="529.0588235294117" as="sourcePoint" />
            <mxPoint x="440" y="529.0588235294117" as="targetPoint" />
            <Array as="points">
              <mxPoint x="400" y="529" />
              <mxPoint x="400" y="529" />
            </Array>
          </mxGeometry>
        </mxCell>
        <mxCell id="uFQV2wClcm7ByzA2WsBp-74" value="" style="rounded=1;whiteSpace=wrap;html=1;fontSize=17;" vertex="1" parent="1">
          <mxGeometry y="55" width="350" height="530" as="geometry" />
        </mxCell>
        <mxCell id="uFQV2wClcm7ByzA2WsBp-21" value="" style="shape=ext;double=1;whiteSpace=wrap;html=1;aspect=fixed;" vertex="1" parent="1">
          <mxGeometry x="-400" y="295" width="220" height="220" as="geometry" />
        </mxCell>
        <mxCell id="uFQV2wClcm7ByzA2WsBp-59" style="edgeStyle=orthogonalEdgeStyle;rounded=0;orthogonalLoop=1;jettySize=auto;html=1;fontSize=23;" edge="1" parent="1" source="UEzPUAAOIrF-is8g5C7q-116" target="uFQV2wClcm7ByzA2WsBp-2">
          <mxGeometry relative="1" as="geometry">
            <Array as="points">
              <mxPoint x="198" y="425" />
              <mxPoint x="198" y="475" />
            </Array>
          </mxGeometry>
        </mxCell>
        <mxCell id="uFQV2wClcm7ByzA2WsBp-60" style="edgeStyle=orthogonalEdgeStyle;rounded=0;orthogonalLoop=1;jettySize=auto;html=1;fontSize=23;" edge="1" parent="1" source="UEzPUAAOIrF-is8g5C7q-116">
          <mxGeometry relative="1" as="geometry">
            <mxPoint x="200" y="265" as="targetPoint" />
            <Array as="points">
              <mxPoint x="200" y="405" />
            </Array>
          </mxGeometry>
        </mxCell>
        <mxCell id="UEzPUAAOIrF-is8g5C7q-116" value="Amazon S3 with lambda" style="outlineConnect=0;fontColor=#232F3E;gradientColor=#60A337;gradientDirection=north;fillColor=#277116;strokeColor=#ffffff;dashed=0;verticalLabelPosition=bottom;verticalAlign=top;align=center;html=1;fontSize=12;fontStyle=0;aspect=fixed;shape=mxgraph.aws4.resourceIcon;resIcon=mxgraph.aws4.s3;labelBackgroundColor=#ffffff;" parent="1" vertex="1">
          <mxGeometry x="48.50000000000023" y="380" width="78" height="78" as="geometry" />
        </mxCell>
        <mxCell id="uFQV2wClcm7ByzA2WsBp-57" value="" style="edgeStyle=orthogonalEdgeStyle;rounded=0;orthogonalLoop=1;jettySize=auto;html=1;fontSize=23;" edge="1" parent="1" source="UEzPUAAOIrF-is8g5C7q-117" target="UEzPUAAOIrF-is8g5C7q-118">
          <mxGeometry relative="1" as="geometry" />
        </mxCell>
        <mxCell id="UEzPUAAOIrF-is8g5C7q-117" value="AWS Glue" style="outlineConnect=0;fontColor=#232F3E;gradientColor=#945DF2;gradientDirection=north;fillColor=#5A30B5;strokeColor=#ffffff;dashed=0;verticalLabelPosition=bottom;verticalAlign=top;align=center;html=1;fontSize=12;fontStyle=0;aspect=fixed;shape=mxgraph.aws4.resourceIcon;resIcon=mxgraph.aws4.glue;labelBackgroundColor=#ffffff;" parent="1" vertex="1">
          <mxGeometry x="71" y="225" width="80" height="80" as="geometry" />
        </mxCell>
        <mxCell id="uFQV2wClcm7ByzA2WsBp-58" style="edgeStyle=orthogonalEdgeStyle;rounded=0;orthogonalLoop=1;jettySize=auto;html=1;fontSize=23;" edge="1" parent="1" source="UEzPUAAOIrF-is8g5C7q-118" target="UEzPUAAOIrF-is8g5C7q-117">
          <mxGeometry relative="1" as="geometry" />
        </mxCell>
        <mxCell id="UEzPUAAOIrF-is8g5C7q-118" value="Amazon Athena" style="outlineConnect=0;fontColor=#232F3E;gradientColor=#945DF2;gradientDirection=north;fillColor=#5A30B5;strokeColor=#ffffff;dashed=0;verticalLabelPosition=bottom;verticalAlign=top;align=center;html=1;fontSize=12;fontStyle=0;aspect=fixed;shape=mxgraph.aws4.resourceIcon;resIcon=mxgraph.aws4.athena;labelBackgroundColor=#ffffff;" parent="1" vertex="1">
          <mxGeometry x="250" y="226" width="78" height="78" as="geometry" />
        </mxCell>
        <mxCell id="uFQV2wClcm7ByzA2WsBp-55" style="edgeStyle=orthogonalEdgeStyle;rounded=0;orthogonalLoop=1;jettySize=auto;html=1;fontSize=23;" edge="1" parent="1" source="UEzPUAAOIrF-is8g5C7q-121" target="UEzPUAAOIrF-is8g5C7q-117">
          <mxGeometry relative="1" as="geometry" />
        </mxCell>
        <mxCell id="UEzPUAAOIrF-is8g5C7q-121" value="Amazon&lt;br&gt;CloudWatch&lt;br&gt;" style="outlineConnect=0;fontColor=#232F3E;gradientColor=#F34482;gradientDirection=north;fillColor=#BC1356;strokeColor=#ffffff;dashed=0;verticalLabelPosition=bottom;verticalAlign=top;align=center;html=1;fontSize=12;fontStyle=0;aspect=fixed;shape=mxgraph.aws4.resourceIcon;resIcon=mxgraph.aws4.cloudwatch;labelBackgroundColor=#ffffff;" parent="1" vertex="1">
          <mxGeometry x="72.00000000000023" y="69" width="78" height="78" as="geometry" />
        </mxCell>
        <mxCell id="uFQV2wClcm7ByzA2WsBp-2" value="EMR" style="outlineConnect=0;dashed=0;verticalLabelPosition=bottom;verticalAlign=top;align=center;html=1;shape=mxgraph.aws3.emr;fillColor=#F58534;gradientColor=none;" vertex="1" parent="1">
          <mxGeometry x="270" y="434" width="67.5" height="81" as="geometry" />
        </mxCell>
        <mxCell id="uFQV2wClcm7ByzA2WsBp-40" style="edgeStyle=orthogonalEdgeStyle;rounded=0;orthogonalLoop=1;jettySize=auto;html=1;exitX=1;exitY=0.5;exitDx=0;exitDy=0;exitPerimeter=0;fontSize=23;" edge="1" parent="1" source="uFQV2wClcm7ByzA2WsBp-3" target="UEzPUAAOIrF-is8g5C7q-116">
          <mxGeometry relative="1" as="geometry">
            <Array as="points">
              <mxPoint x="-68" y="373" />
              <mxPoint x="-68" y="415" />
            </Array>
          </mxGeometry>
        </mxCell>
        <mxCell id="uFQV2wClcm7ByzA2WsBp-3" value="Direct Connect" style="outlineConnect=0;dashed=0;verticalLabelPosition=bottom;verticalAlign=top;align=center;html=1;shape=mxgraph.aws3.direct_connect;fillColor=#F58536;gradientColor=none;" vertex="1" parent="1">
          <mxGeometry x="-135" y="348" width="40" height="50" as="geometry" />
        </mxCell>
        <mxCell id="uFQV2wClcm7ByzA2WsBp-42" style="edgeStyle=orthogonalEdgeStyle;rounded=0;orthogonalLoop=1;jettySize=auto;html=1;exitX=1;exitY=0.52;exitDx=0;exitDy=0;exitPerimeter=0;fontSize=23;" edge="1" parent="1" source="uFQV2wClcm7ByzA2WsBp-6" target="UEzPUAAOIrF-is8g5C7q-116">
          <mxGeometry relative="1" as="geometry">
            <Array as="points">
              <mxPoint x="-68" y="464" />
              <mxPoint x="-68" y="425" />
            </Array>
          </mxGeometry>
        </mxCell>
        <mxCell id="uFQV2wClcm7ByzA2WsBp-6" value="Kinesis Firehose" style="outlineConnect=0;dashed=0;verticalLabelPosition=bottom;verticalAlign=top;align=center;html=1;shape=mxgraph.aws3.kinesis_firehose;fillColor=#F58534;gradientColor=none;" vertex="1" parent="1">
          <mxGeometry x="-145" y="438" width="50" height="50" as="geometry" />
        </mxCell>
        <mxCell id="uFQV2wClcm7ByzA2WsBp-44" style="edgeStyle=orthogonalEdgeStyle;rounded=0;orthogonalLoop=1;jettySize=auto;html=1;entryX=0;entryY=0.5;entryDx=0;entryDy=0;entryPerimeter=0;fontSize=23;" edge="1" parent="1" source="uFQV2wClcm7ByzA2WsBp-8" target="uFQV2wClcm7ByzA2WsBp-3">
          <mxGeometry relative="1" as="geometry" />
        </mxCell>
        <mxCell id="uFQV2wClcm7ByzA2WsBp-8" value="Mysql(Internal systems/Buried point)" style="verticalLabelPosition=bottom;html=1;verticalAlign=top;align=center;strokeColor=none;fillColor=#00BEF2;shape=mxgraph.azure.mysql_database;" vertex="1" parent="1">
          <mxGeometry x="-306" y="348" width="37.5" height="50" as="geometry" />
        </mxCell>
        <mxCell id="uFQV2wClcm7ByzA2WsBp-43" style="edgeStyle=orthogonalEdgeStyle;rounded=0;orthogonalLoop=1;jettySize=auto;html=1;entryX=0;entryY=0.5;entryDx=0;entryDy=0;entryPerimeter=0;fontSize=23;" edge="1" parent="1" source="uFQV2wClcm7ByzA2WsBp-16" target="uFQV2wClcm7ByzA2WsBp-6">
          <mxGeometry relative="1" as="geometry" />
        </mxCell>
        <mxCell id="uFQV2wClcm7ByzA2WsBp-16" value="social media" style="shape=image;html=1;verticalAlign=top;verticalLabelPosition=bottom;labelBackgroundColor=#ffffff;imageAspect=0;aspect=fixed;image=https://cdn4.iconfinder.com/data/icons/social-media-flat-7/64/Social-media_Twitter-128.png" vertex="1" parent="1">
          <mxGeometry x="-306" y="443" width="40" height="40" as="geometry" />
        </mxCell>
        <mxCell id="uFQV2wClcm7ByzA2WsBp-23" value="data sources" style="text;strokeColor=none;fillColor=none;html=1;fontSize=19;fontStyle=1;verticalAlign=middle;align=center;" vertex="1" parent="1">
          <mxGeometry x="-316" y="313" width="50" height="30" as="geometry" />
        </mxCell>
        <mxCell id="uFQV2wClcm7ByzA2WsBp-48" value="input" style="text;html=1;strokeColor=none;fillColor=none;align=center;verticalAlign=middle;whiteSpace=wrap;rounded=0;fontSize=17;" vertex="1" parent="1">
          <mxGeometry x="-58" y="384" width="60" height="30" as="geometry" />
        </mxCell>
        <mxCell id="uFQV2wClcm7ByzA2WsBp-50" value="data lake for raw data" style="text;html=1;strokeColor=none;fillColor=none;align=center;verticalAlign=middle;whiteSpace=wrap;rounded=0;fontSize=17;fontStyle=1" vertex="1" parent="1">
          <mxGeometry x="-10" y="495" width="241" height="8" as="geometry" />
        </mxCell>
        <mxCell id="uFQV2wClcm7ByzA2WsBp-52" value="" style="outlineConnect=0;dashed=0;verticalLabelPosition=bottom;verticalAlign=top;align=center;html=1;shape=mxgraph.aws3.lambda_function;fillColor=#F58534;gradientColor=none;fontSize=23;" vertex="1" parent="1">
          <mxGeometry x="71" y="420.5" width="29" height="28" as="geometry" />
        </mxCell>
        <mxCell id="uFQV2wClcm7ByzA2WsBp-56" value="monitor" style="text;html=1;strokeColor=none;fillColor=none;align=center;verticalAlign=middle;whiteSpace=wrap;rounded=0;fontSize=15;" vertex="1" parent="1">
          <mxGeometry x="20" y="185" width="241" height="22" as="geometry" />
        </mxCell>
        <mxCell id="uFQV2wClcm7ByzA2WsBp-71" value="" style="edgeStyle=orthogonalEdgeStyle;rounded=0;orthogonalLoop=1;jettySize=auto;html=1;fontSize=13;" edge="1" parent="1" target="uFQV2wClcm7ByzA2WsBp-68">
          <mxGeometry relative="1" as="geometry">
            <mxPoint x="700" y="325" as="sourcePoint" />
          </mxGeometry>
        </mxCell>
        <mxCell id="uFQV2wClcm7ByzA2WsBp-72" style="edgeStyle=orthogonalEdgeStyle;rounded=0;orthogonalLoop=1;jettySize=auto;html=1;entryX=0;entryY=0.5;entryDx=0;entryDy=0;fontSize=13;" edge="1" parent="1">
          <mxGeometry relative="1" as="geometry">
            <mxPoint x="701" y="325" as="sourcePoint" />
            <mxPoint x="743" y="260" as="targetPoint" />
            <Array as="points">
              <mxPoint x="701" y="260" />
            </Array>
          </mxGeometry>
        </mxCell>
        <mxCell id="uFQV2wClcm7ByzA2WsBp-80" style="edgeStyle=orthogonalEdgeStyle;rounded=0;orthogonalLoop=1;jettySize=auto;html=1;fontSize=11;" edge="1" parent="1" source="uFQV2wClcm7ByzA2WsBp-63" target="uFQV2wClcm7ByzA2WsBp-81">
          <mxGeometry relative="1" as="geometry">
            <mxPoint x="476.75" y="445" as="targetPoint" />
          </mxGeometry>
        </mxCell>
        <mxCell id="uFQV2wClcm7ByzA2WsBp-63" value="&lt;font style=&quot;font-size: 13px&quot;&gt;data warehouse&lt;/font&gt;" style="shape=image;html=1;verticalAlign=top;verticalLabelPosition=bottom;labelBackgroundColor=#ffffff;imageAspect=0;aspect=fixed;image=https://cdn1.iconfinder.com/data/icons/2-building-line-filled/614/Warehouse-128.png;fontSize=23;" vertex="1" parent="1">
          <mxGeometry x="440" y="283.25" width="73.5" height="73.5" as="geometry" />
        </mxCell>
        <mxCell id="uFQV2wClcm7ByzA2WsBp-64" value="data mart1" style="verticalLabelPosition=bottom;html=1;verticalAlign=top;strokeWidth=2;shape=mxgraph.lean_mapping.warehouse;fontSize=13;" vertex="1" parent="1">
          <mxGeometry x="742" y="245" width="40" height="30" as="geometry" />
        </mxCell>
        <mxCell id="uFQV2wClcm7ByzA2WsBp-68" value="data mart2" style="verticalLabelPosition=bottom;html=1;verticalAlign=top;strokeWidth=2;shape=mxgraph.lean_mapping.warehouse;fontSize=13;" vertex="1" parent="1">
          <mxGeometry x="742" y="310" width="40" height="30" as="geometry" />
        </mxCell>
        <mxCell id="uFQV2wClcm7ByzA2WsBp-69" value="data mart3" style="verticalLabelPosition=bottom;html=1;verticalAlign=top;strokeWidth=2;shape=mxgraph.lean_mapping.warehouse;fontSize=13;" vertex="1" parent="1">
          <mxGeometry x="742" y="375" width="40" height="30" as="geometry" />
        </mxCell>
        <mxCell id="uFQV2wClcm7ByzA2WsBp-76" value="Extract" style="text;html=1;strokeColor=none;fillColor=none;align=center;verticalAlign=middle;whiteSpace=wrap;rounded=0;fontSize=15;" vertex="1" parent="1">
          <mxGeometry x="360" y="326.75" width="60" height="30" as="geometry" />
        </mxCell>
        <mxCell id="uFQV2wClcm7ByzA2WsBp-77" value="department1" style="text;html=1;strokeColor=none;fillColor=none;align=center;verticalAlign=middle;whiteSpace=wrap;rounded=0;fontSize=11;" vertex="1" parent="1">
          <mxGeometry x="796.5" y="245" width="60" height="30" as="geometry" />
        </mxCell>
        <mxCell id="uFQV2wClcm7ByzA2WsBp-78" value="department2" style="text;html=1;strokeColor=none;fillColor=none;align=center;verticalAlign=middle;whiteSpace=wrap;rounded=0;fontSize=11;" vertex="1" parent="1">
          <mxGeometry x="796.5" y="310" width="60" height="30" as="geometry" />
        </mxCell>
        <mxCell id="uFQV2wClcm7ByzA2WsBp-79" value="department3" style="text;html=1;strokeColor=none;fillColor=none;align=center;verticalAlign=middle;whiteSpace=wrap;rounded=0;fontSize=11;" vertex="1" parent="1">
          <mxGeometry x="796.5" y="375" width="60" height="30" as="geometry" />
        </mxCell>
        <mxCell id="uFQV2wClcm7ByzA2WsBp-122" style="edgeStyle=orthogonalEdgeStyle;rounded=0;orthogonalLoop=1;jettySize=auto;html=1;entryX=0.75;entryY=0;entryDx=0;entryDy=0;fontSize=13;" edge="1" parent="1">
          <mxGeometry relative="1" as="geometry">
            <mxPoint x="497.18000000000006" y="70.5" as="sourcePoint" />
            <mxPoint x="974" y="242.5" as="targetPoint" />
          </mxGeometry>
        </mxCell>
        <mxCell id="uFQV2wClcm7ByzA2WsBp-81" value="Reports, dimensional statistics, etc" style="rounded=1;whiteSpace=wrap;html=1;fontSize=11;" vertex="1" parent="1">
          <mxGeometry x="384.30999999999995" y="55" width="184.87" height="30" as="geometry" />
        </mxCell>
        <mxCell id="uFQV2wClcm7ByzA2WsBp-82" value="Output" style="text;html=1;strokeColor=none;fillColor=none;align=center;verticalAlign=middle;whiteSpace=wrap;rounded=0;fontSize=15;" vertex="1" parent="1">
          <mxGeometry x="410" y="205" width="60" height="30" as="geometry" />
        </mxCell>
        <mxCell id="uFQV2wClcm7ByzA2WsBp-120" style="edgeStyle=orthogonalEdgeStyle;rounded=0;orthogonalLoop=1;jettySize=auto;html=1;entryX=0.5;entryY=1;entryDx=0;entryDy=0;fontSize=13;" edge="1" parent="1">
          <mxGeometry relative="1" as="geometry">
            <mxPoint x="490" y="528.5" as="sourcePoint" />
            <mxPoint x="924" y="373.5" as="targetPoint" />
          </mxGeometry>
        </mxCell>
        <mxCell id="uFQV2wClcm7ByzA2WsBp-89" value="Enquiry, analysis" style="whiteSpace=wrap;html=1;fontSize=12;rounded=1;" vertex="1" parent="1">
          <mxGeometry x="440" y="515" width="140" height="30" as="geometry" />
        </mxCell>
        <mxCell id="uFQV2wClcm7ByzA2WsBp-91" value="Output" style="text;html=1;strokeColor=none;fillColor=none;align=center;verticalAlign=middle;whiteSpace=wrap;rounded=0;fontSize=15;" vertex="1" parent="1">
          <mxGeometry x="360" y="503" width="60" height="30" as="geometry" />
        </mxCell>
        <mxCell id="uFQV2wClcm7ByzA2WsBp-94" value="" style="shape=image;html=1;verticalAlign=top;verticalLabelPosition=bottom;labelBackgroundColor=#ffffff;imageAspect=0;aspect=fixed;image=https://cdn3.iconfinder.com/data/icons/fintech-icon/128/11_Data_Visualization-128.png;fontSize=19;" vertex="1" parent="1">
          <mxGeometry x="883" y="241.5" width="128" height="128" as="geometry" />
        </mxCell>
        <mxCell id="uFQV2wClcm7ByzA2WsBp-97" value="&lt;font style=&quot;font-size: 13px&quot;&gt;MongoDB&lt;br&gt;(Document DB)&lt;/font&gt;" style="dashed=0;outlineConnect=0;html=1;align=center;labelPosition=center;verticalLabelPosition=bottom;verticalAlign=top;shape=mxgraph.weblogos.mongodb;fontSize=19;" vertex="1" parent="1">
          <mxGeometry x="595.12" y="176" width="20" height="48.2" as="geometry" />
        </mxCell>
        <mxCell id="uFQV2wClcm7ByzA2WsBp-98" value="&lt;span lang=&quot;EN-US&quot; style=&quot;font-size: 10.5pt ; font-family: &amp;#34;dengxian&amp;#34;&quot;&gt;Apache Hbase&lt;br&gt;(Columnar DB)&lt;/span&gt;&lt;span style=&quot;font-size: medium&quot;&gt;&lt;/span&gt;" style="sketch=0;pointerEvents=1;shadow=0;dashed=0;html=1;strokeColor=none;fillColor=#505050;labelPosition=center;verticalLabelPosition=bottom;verticalAlign=top;outlineConnect=0;align=center;shape=mxgraph.office.concepts.column;fontSize=19;" vertex="1" parent="1">
          <mxGeometry x="580" y="290" width="50" height="43" as="geometry" />
        </mxCell>
        <mxCell id="uFQV2wClcm7ByzA2WsBp-99" value="&lt;div&gt;&lt;font face=&quot;DengXian&quot;&gt;&lt;span style=&quot;font-size: 14px&quot;&gt;Neo4j&lt;/span&gt;&lt;/font&gt;&lt;/div&gt;&lt;div&gt;&lt;font face=&quot;DengXian&quot;&gt;&lt;span style=&quot;font-size: 14px&quot;&gt;(&lt;/span&gt;&lt;/font&gt;Graph DB)&lt;/div&gt;" style="aspect=fixed;html=1;points=[];align=center;image;fontSize=12;image=img/lib/azure2/management_governance/Resource_Graph_Explorer.svg;" vertex="1" parent="1">
          <mxGeometry x="580" y="395" width="50.25" height="48" as="geometry" />
        </mxCell>
        <mxCell id="uFQV2wClcm7ByzA2WsBp-102" value="" style="shape=curlyBracket;whiteSpace=wrap;html=1;rounded=1;fontSize=13;" vertex="1" parent="1">
          <mxGeometry x="520" y="205" width="40" height="240" as="geometry" />
        </mxCell>
        <mxCell id="uFQV2wClcm7ByzA2WsBp-105" style="edgeStyle=orthogonalEdgeStyle;rounded=0;orthogonalLoop=1;jettySize=auto;html=1;entryX=0;entryY=0.5;entryDx=0;entryDy=0;fontSize=13;" edge="1" parent="1">
          <mxGeometry relative="1" as="geometry">
            <mxPoint x="681" y="325.0588235294117" as="sourcePoint" />
            <mxPoint x="743" y="390" as="targetPoint" />
            <Array as="points">
              <mxPoint x="701" y="325" />
              <mxPoint x="701" y="390" />
            </Array>
          </mxGeometry>
        </mxCell>
        <mxCell id="uFQV2wClcm7ByzA2WsBp-103" value="" style="shape=curlyBracket;whiteSpace=wrap;html=1;rounded=1;flipH=1;fontSize=13;" vertex="1" parent="1">
          <mxGeometry x="640" y="205" width="40" height="240" as="geometry" />
        </mxCell>
        <mxCell id="uFQV2wClcm7ByzA2WsBp-121" style="edgeStyle=orthogonalEdgeStyle;rounded=0;orthogonalLoop=1;jettySize=auto;html=1;entryX=0.5;entryY=0;entryDx=0;entryDy=0;fontSize=13;" edge="1" parent="1">
          <mxGeometry relative="1" as="geometry">
            <mxPoint x="678" y="120.5" as="sourcePoint" />
            <mxPoint x="922" y="242.5" as="targetPoint" />
          </mxGeometry>
        </mxCell>
        <mxCell id="uFQV2wClcm7ByzA2WsBp-109" value="Output" style="rhombus;whiteSpace=wrap;html=1;fontSize=13;rounded=1;" vertex="1" parent="1">
          <mxGeometry x="690" y="80" width="80" height="80" as="geometry" />
        </mxCell>
        <mxCell id="uFQV2wClcm7ByzA2WsBp-114" value="Trigger when some transactional data(price) need to be calculated" style="text;html=1;strokeColor=none;fillColor=none;align=center;verticalAlign=middle;whiteSpace=wrap;rounded=0;fontSize=9;" vertex="1" parent="1">
          <mxGeometry x="610" y="554" width="114.88" height="56" as="geometry" />
        </mxCell>
        <mxCell id="uFQV2wClcm7ByzA2WsBp-115" value="Replication" style="sketch=0;outlineConnect=0;fontColor=#232F3E;gradientColor=none;fillColor=#3F8624;strokeColor=none;dashed=0;verticalLabelPosition=bottom;verticalAlign=top;align=center;html=1;fontSize=9;fontStyle=0;aspect=fixed;pointerEvents=1;shape=mxgraph.aws4.replication;" vertex="1" parent="1">
          <mxGeometry x="651.8299999999999" y="604" width="29.23" height="30" as="geometry" />
        </mxCell>
        <mxCell id="uFQV2wClcm7ByzA2WsBp-118" value="Visualization" style="text;html=1;strokeColor=none;fillColor=none;align=center;verticalAlign=middle;whiteSpace=wrap;rounded=0;fontSize=13;" vertex="1" parent="1">
          <mxGeometry x="920" y="343" width="60" height="30" as="geometry" />
        </mxCell>
      </root>
    </mxGraphModel>
  </diagram>
</mxfile>
